<?xml version="1.0" encoding="utf-8"?>
<!-- Generator: Adobe Illustrator 17.0.0, SVG Export Plug-In . SVG Version: 6.00 Build 0)  -->
<!DOCTYPE svg PUBLIC "-//W3C//DTD SVG 1.1//EN" "http://www.w3.org/Graphics/SVG/1.1/DTD/svg11.dtd">
<svg version="1.1" id="Layer_1" xmlns="http://www.w3.org/2000/svg" xmlns:xlink="http://www.w3.org/1999/xlink" x="0px" y="0px"
	 width="303.164px" height="97.089px" viewBox="0 0 303.164 97.089" enable-background="new 0 0 303.164 97.089"
	 xml:space="preserve">
<text transform="matrix(1 0 0 1 104.7141 66.7956)" font-family="'BrandonGrotesque-Bold'" font-size="72">Bullets</text>
<g>
	<g>
		<defs>
			<rect id="SVGID_1_" x="0" y="0" width="95.714" height="96.133"/>
		</defs>
		<clipPath id="SVGID_2_">
			<use xlink:href="#SVGID_1_"  overflow="visible"/>
		</clipPath>
		<path clip-path="url(#SVGID_2_)" fill="#F7B237" d="M47.214,3.393c25.144,0,45.527,20.383,45.527,45.527
			c0,25.144-20.383,45.527-45.527,45.527c-25.144,0-45.527-20.383-45.527-45.527C1.687,23.776,22.07,3.393,47.214,3.393
			L47.214,3.393z"/>
		<path clip-path="url(#SVGID_2_)" fill="#E19C2A" d="M23.295,72.839C6.917,56.461,5.627,30.71,19.422,12.854
			c-1.528,1.181-2.998,2.471-4.4,3.873c-17.779,17.779-17.779,46.605,0,64.384s46.605,17.779,64.384,0
			c1.401-1.401,2.692-2.872,3.873-4.4C65.423,90.506,39.673,89.216,23.295,72.839L23.295,72.839z"/>
	</g>
	<path fill="#FFFFFF" d="M24.265,53.038h45.898c0,2.576-0.425,5.053-1.208,7.366H25.473C24.69,58.091,24.265,55.614,24.265,53.038
		L24.265,53.038z"/>
	<path fill="#A71E22" d="M25.473,60.404h43.482c-1.543,4.558-4.48,8.471-8.302,11.236c-1.606-2.707-4.558-4.52-7.935-4.52
		c-2.063,0-3.967,0.677-5.503,1.822c-1.537-1.145-3.442-1.822-5.506-1.822c-3.375,0-6.329,1.813-7.933,4.52
		C29.953,68.875,27.017,64.962,25.473,60.404L25.473,60.404z"/>
	<path fill="#F1562E" d="M52.717,67.12c3.377,0,6.329,1.813,7.935,4.52c-3.778,2.736-8.421,4.347-13.439,4.347
		c-5.017,0-9.661-1.611-13.439-4.347c1.604-2.707,4.558-4.52,7.933-4.52c2.063,0,3.969,0.677,5.506,1.822
		C48.751,67.797,50.654,67.12,52.717,67.12L52.717,67.12z"/>
	<path fill="#4C9FD8" d="M75.692,24.471L75.692,24.471c-4.194-4.195-4.194-10.995,0-15.189l7.595-7.595l7.595,7.595
		c4.194,4.194,4.194,10.995,0,15.189l0,0C86.686,28.666,79.886,28.666,75.692,24.471L75.692,24.471z"/>
	<path fill="#2996D3" d="M81.091,24.471L81.091,24.471c-4.194-4.194-4.194-10.995,0-15.189l4.895-4.895l-2.7-2.7l-7.595,7.595
		c-4.194,4.195-4.194,10.995,0,15.189l0,0c2.79,2.79,6.732,3.722,10.295,2.8C84.193,26.808,82.496,25.876,81.091,24.471
		L81.091,24.471z"/>
	<path d="M31.667,39.354c0,0.932,0.756,1.688,1.687,1.688c0.932,0,1.687-0.756,1.687-1.688c0-5.894-4.795-10.688-10.688-10.688
		c-5.893,0-10.688,4.795-10.688,10.688c0,0.932,0.756,1.688,1.687,1.688s1.687-0.756,1.687-1.688c0-4.033,3.281-7.313,7.313-7.313
		C28.386,32.041,31.667,35.321,31.667,39.354L31.667,39.354z"/>
	<path d="M70.074,28.666c-5.893,0-10.688,4.795-10.688,10.688c0,0.932,0.756,1.688,1.687,1.688s1.687-0.756,1.687-1.688
		c0-4.033,3.281-7.313,7.313-7.313c4.033,0,7.314,3.281,7.314,7.313c0,0.932,0.756,1.688,1.687,1.688
		c0.932,0,1.687-0.756,1.687-1.688C80.763,33.461,75.968,28.666,70.074,28.666L70.074,28.666z"/>
	<path d="M60.987,69.236c-2.054-2.379-5.078-3.803-8.269-3.803c-1.959,0-3.84,0.511-5.503,1.488
		c-1.664-0.977-3.545-1.488-5.506-1.488c-3.193,0-6.217,1.425-8.268,3.802c-2.328-1.975-4.183-4.399-5.471-7.144h38.489
		C65.171,64.835,63.315,67.26,60.987,69.236L60.987,69.236z M36.189,71.22c1.411-1.514,3.412-2.413,5.519-2.413
		c1.636,0,3.191,0.514,4.497,1.488c0.598,0.446,1.418,0.446,2.017,0c1.306-0.974,2.861-1.488,4.495-1.488
		c2.106,0,4.108,0.898,5.52,2.413c-3.315,2.019-7.092,3.079-11.024,3.079S39.505,73.24,36.189,71.22L36.189,71.22z M68.41,54.725
		c-0.106,1.353-0.342,2.688-0.702,3.991H26.721c-0.36-1.303-0.596-2.638-0.702-3.991H68.41L68.41,54.725L68.41,54.725z
		 M70.163,51.35H24.265c-0.932,0-1.687,0.756-1.687,1.687c0,2.704,0.437,5.364,1.297,7.907c1.648,4.866,4.729,9.037,8.911,12.062
		c4.216,3.054,9.206,4.668,14.428,4.668c5.223,0,10.212-1.614,14.428-4.667c4.182-3.025,7.264-7.197,8.912-12.062l0,0
		c0.861-2.543,1.297-5.203,1.297-7.907C71.851,52.106,71.095,51.35,70.163,51.35L70.163,51.35z"/>
	<path d="M91.052,48.919c0,24.173-19.665,43.84-43.837,43.84c-24.173,0-43.84-19.666-43.84-43.84s19.666-43.84,43.84-43.84
		c8.784,0,17.201,2.568,24.431,7.436c-0.515,1.376-0.787,2.848-0.787,4.361c0,3.319,1.293,6.441,3.64,8.788
		c2.423,2.423,5.605,3.634,8.788,3.634c0.995,0,1.989-0.119,2.961-0.355C89.394,35.089,91.052,41.966,91.052,48.919L91.052,48.919z
		 M83.286,4.074l6.401,6.401c1.71,1.71,2.652,3.983,2.652,6.401c0,2.418-0.942,4.692-2.652,6.402c-3.53,3.53-9.273,3.53-12.803,0
		c-1.71-1.71-2.652-3.983-2.652-6.402c0-2.418,0.942-4.692,2.652-6.401L83.286,4.074L83.286,4.074z M92.074,25.665
		c2.347-2.347,3.64-5.468,3.64-8.788c0-3.32-1.293-6.441-3.64-8.788L84.48,0.494C84.163,0.178,83.734,0,83.286,0
		c-0.448,0-0.877,0.178-1.193,0.494l-7.595,7.595c-0.454,0.454-0.867,0.937-1.24,1.444c-7.728-5.127-16.693-7.828-26.044-7.828
		C21.18,1.704,0,22.885,0,48.919s21.18,47.215,47.215,47.215c26.033,0,47.212-21.18,47.212-47.215
		c0-7.378-1.737-14.676-5.032-21.222C90.355,27.156,91.258,26.48,92.074,25.665L92.074,25.665z"/>
</g>
<text transform="matrix(1 0 0 1 109.7143 90.5784)" fill="#469FD8" font-family="'BrandonGrotesque-Bold'" font-size="21">CSS Weapon of Choice</text>
</svg>
