<svg version="1.1" id="Layer_1" xmlns="http://www.w3.org/2000/svg" xmlns:xlink="http://www.w3.org/1999/xlink" x="0px" y="0px"
	 width="303.164px" height="97.089px" viewBox="0 0 303.164 97.089" enable-background="new 0 0 303.164 97.089"
	 xml:space="preserve">
<g>
	<path d="M111.253,65.425V17.753c0-0.375,0.127-0.697,0.383-0.967c0.255-0.27,0.581-0.404,0.976-0.404h16.348
		c4.253,0,7.826,1.281,10.719,3.845s4.34,5.737,4.34,9.523c0,2.512-0.79,4.802-2.37,6.87c-1.58,2.069-3.33,3.569-5.248,4.499
		c0.983,0.326,1.966,0.804,2.95,1.433c0.983,0.628,1.939,1.414,2.867,2.356c0.927,0.943,1.676,2.102,2.246,3.476
		c0.57,1.373,0.855,2.84,0.855,4.399c0,4.021-1.487,7.361-4.463,10.021c-2.975,2.661-6.65,3.991-11.025,3.991h-17.225
		c-0.393,0-0.717-0.135-0.972-0.404S111.253,65.8,111.253,65.425z M120.64,37.581h7.68c1.799,0,3.278-0.623,4.436-1.87
		c1.157-1.247,1.736-2.779,1.736-4.598c0-1.795-0.573-3.257-1.718-4.388c-1.146-1.13-2.63-1.695-4.453-1.695h-7.68V37.581z
		 M120.64,58.147h8.663c1.801,0,3.333-0.625,4.595-1.875c1.262-1.251,1.894-2.799,1.894-4.646c0-1.753-0.743-3.231-2.228-4.436
		s-3.186-1.806-5.103-1.806h-7.822V58.147z"/>
	<path d="M151.788,53.331V39.374c0-0.398,0.134-0.727,0.403-0.984c0.268-0.258,0.577-0.387,0.928-0.387h5.882
		c0.374,0,0.694,0.129,0.963,0.386c0.268,0.258,0.403,0.585,0.403,0.983v14.145c0,1.92,0.47,3.429,1.411,4.528
		s2.233,1.649,3.88,1.649c1.434,0,2.698-0.55,3.791-1.649c1.093-1.1,1.758-2.34,1.993-3.721V39.372c0-0.539,0.119-0.901,0.359-1.089
		c0.239-0.187,0.658-0.28,1.256-0.28h5.563c0.382,0,0.711,0.129,0.986,0.387s0.413,0.586,0.413,0.984v26.051
		c0,0.352-0.144,0.668-0.431,0.949s-0.61,0.422-0.969,0.422h-2.692c-0.646,0-1.113-0.365-1.4-1.096l-0.897-2.366
		c-0.047,0.047-0.23,0.218-0.549,0.512c-0.318,0.295-0.561,0.513-0.726,0.653c-0.166,0.142-0.449,0.359-0.85,0.654
		c-0.401,0.294-0.761,0.529-1.08,0.707c-0.318,0.177-0.731,0.383-1.239,0.617c-0.507,0.236-1.01,0.418-1.505,0.547
		c-0.496,0.129-1.074,0.24-1.735,0.334c-0.662,0.094-1.334,0.141-2.018,0.141c-2.152,0-4.03-0.387-5.632-1.16
		s-2.865-1.834-3.789-3.182c-0.924-1.348-1.608-2.842-2.053-4.482C152.01,57.034,151.788,55.253,151.788,53.331z"/>
	<path d="M188.491,65.425V17.753c0-0.352,0.142-0.668,0.425-0.949s0.603-0.422,0.957-0.422h6.096c0.354,0,0.674,0.141,0.957,0.422
		s0.425,0.598,0.425,0.949v47.672c0,0.352-0.142,0.668-0.425,0.949s-0.604,0.422-0.957,0.422h-6.096
		c-0.354,0-0.674-0.141-0.957-0.422S188.491,65.776,188.491,65.425z"/>
	<path d="M205.894,65.425V17.753c0-0.352,0.142-0.668,0.425-0.949s0.603-0.422,0.957-0.422h6.096c0.354,0,0.674,0.141,0.957,0.422
		s0.425,0.598,0.425,0.949v47.672c0,0.352-0.142,0.668-0.425,0.949s-0.604,0.422-0.957,0.422h-6.096
		c-0.354,0-0.674-0.141-0.957-0.422S205.894,65.776,205.894,65.425z"/>
	<path d="M221.116,52.382c0-2.695,0.62-5.191,1.863-7.488c1.242-2.297,2.993-4.143,5.256-5.537c2.262-1.395,4.786-2.092,7.576-2.092
		c3.749,0,6.931,1.271,9.545,3.814c2.613,2.543,3.92,5.736,3.92,9.58c0,0.656-0.048,1.312-0.141,1.969
		c-0.023,0.352-0.176,0.639-0.457,0.861s-0.586,0.334-0.914,0.334h-18.422c0.117,1.509,0.809,2.864,2.074,4.067
		s2.883,1.804,4.852,1.804c2.062,0,3.925-0.568,5.59-1.706c0.82-0.459,1.453-0.436,1.898,0.068l2.918,3.496
		c0.258,0.265,0.392,0.57,0.404,0.919c0.012,0.349-0.146,0.679-0.475,0.991c-2.836,2.69-6.411,4.036-10.723,4.036
		c-4.267,0-7.793-1.465-10.582-4.395C222.51,60.175,221.116,56.601,221.116,52.382z M229.976,48.796h10.898
		c-0.118-1.336-0.686-2.484-1.705-3.445s-2.21-1.441-3.568-1.441c-1.43,0-2.678,0.469-3.744,1.406
		C230.789,46.253,230.163,47.413,229.976,48.796z"/>
	<path d="M253.074,44.392v-4.973c0-0.411,0.128-0.75,0.387-1.017c0.258-0.266,0.562-0.399,0.914-0.399h2.461v-7.805
		c0-0.342,0.141-0.645,0.422-0.907s0.598-0.394,0.949-0.394l5.906-0.07c0.352,0,0.656,0.132,0.914,0.395
		c0.258,0.264,0.387,0.566,0.387,0.908v7.873h6.328c0.398,0,0.727,0.134,0.984,0.399c0.258,0.267,0.387,0.605,0.387,1.017v4.973
		c0,0.388-0.129,0.721-0.387,0.998c-0.258,0.279-0.586,0.418-0.984,0.418h-6.328v11.59c0,0.919,0.193,1.531,0.58,1.838
		s0.932,0.459,1.635,0.459c0.867,0,2.039-0.259,3.516-0.777c0.82-0.282,1.348-0.037,1.582,0.735l1.441,4.396
		c0.07,0.16,0.105,0.319,0.105,0.478c0,0.181-0.047,0.35-0.141,0.507c-0.141,0.315-0.387,0.541-0.738,0.676
		c-0.164,0.09-0.68,0.271-1.547,0.541c-0.867,0.27-1.992,0.546-3.375,0.827s-2.602,0.423-3.656,0.423
		c-5.321,0-7.98-3.059-7.98-9.177V45.808h-2.461c-0.352,0-0.656-0.145-0.914-0.436C253.201,45.082,253.074,44.755,253.074,44.392z"
		/>
	<path d="M278.21,45.772c0-2.391,0.934-4.406,2.801-6.047s4.607-2.461,8.22-2.461c3.673,0,6.621,0.75,8.845,2.25
		c0.327,0.211,0.555,0.498,0.684,0.861s0.111,0.721-0.053,1.072l-1.793,3.691c-0.164,0.305-0.422,0.492-0.773,0.562
		s-0.668,0.047-0.949-0.07c-2.15-1.008-4.137-1.512-5.96-1.512c-1.628,0-2.442,0.551-2.442,1.652c0,0.656,0.454,1.23,1.361,1.723
		c0.325,0.141,1.186,0.504,2.582,1.09c1.215,0.469,2.268,0.914,3.158,1.336s1.77,0.932,2.637,1.529s1.57,1.23,2.109,1.898
		s0.973,1.459,1.301,2.373s0.492,1.922,0.492,3.023c0,2.461-1.03,4.535-3.089,6.223s-4.843,2.531-8.353,2.531
		c-2.23,0-4.189-0.264-5.879-0.791c-1.688-0.527-2.989-1.143-3.903-1.846c-0.562-0.469-0.703-0.973-0.422-1.512l1.934-3.902
		c0.141-0.352,0.374-0.562,0.703-0.633c0.327-0.07,0.644-0.023,0.949,0.141c2.251,1.148,4.516,1.723,6.792,1.723
		c1.605,0,2.408-0.598,2.408-1.793c0-0.656-0.326-1.236-0.978-1.74s-1.92-1.131-3.804-1.881c-2.946-1.078-5.112-2.385-6.499-3.92
		S278.21,47.952,278.21,45.772z"/>
</g>
<g>
	<g>
		<defs>
			<rect id="SVGID_1_" x="0" y="0" width="95.714" height="96.133"/>
		</defs>
		<clipPath id="SVGID_2_">
			<use xlink:href="#SVGID_1_"  overflow="visible"/>
		</clipPath>
		<path clip-path="url(#SVGID_2_)" fill="#F7B237" d="M47.214,3.393c25.144,0,45.527,20.383,45.527,45.527
			c0,25.144-20.383,45.527-45.527,45.527c-25.144,0-45.527-20.383-45.527-45.527C1.687,23.776,22.07,3.393,47.214,3.393
			L47.214,3.393z"/>
		<path clip-path="url(#SVGID_2_)" fill="#E19C2A" d="M23.295,72.839C6.917,56.461,5.627,30.71,19.422,12.854
			c-1.528,1.181-2.998,2.471-4.4,3.873c-17.779,17.779-17.779,46.605,0,64.384s46.605,17.779,64.384,0
			c1.401-1.401,2.692-2.872,3.873-4.4C65.423,90.506,39.673,89.216,23.295,72.839L23.295,72.839z"/>
	</g>
	<path fill="#FFFFFF" d="M24.265,53.038h45.898c0,2.576-0.425,5.053-1.208,7.366H25.473C24.69,58.091,24.265,55.614,24.265,53.038
		L24.265,53.038z"/>
	<path fill="#A71E22" d="M25.473,60.404h43.482c-1.543,4.558-4.48,8.471-8.302,11.236c-1.606-2.707-4.558-4.52-7.935-4.52
		c-2.063,0-3.967,0.677-5.503,1.822c-1.537-1.145-3.442-1.822-5.506-1.822c-3.375,0-6.329,1.813-7.933,4.52
		C29.953,68.875,27.017,64.962,25.473,60.404L25.473,60.404z"/>
	<path fill="#F1562E" d="M52.717,67.12c3.377,0,6.329,1.813,7.935,4.52c-3.778,2.736-8.421,4.347-13.439,4.347
		c-5.017,0-9.661-1.611-13.439-4.347c1.604-2.707,4.558-4.52,7.933-4.52c2.063,0,3.969,0.677,5.506,1.822
		C48.751,67.797,50.654,67.12,52.717,67.12L52.717,67.12z"/>
	<path fill="#4C9FD8" d="M75.692,24.471L75.692,24.471c-4.194-4.195-4.194-10.995,0-15.189l7.595-7.595l7.595,7.595
		c4.194,4.194,4.194,10.995,0,15.189l0,0C86.686,28.666,79.886,28.666,75.692,24.471L75.692,24.471z"/>
	<path fill="#2996D3" d="M81.091,24.471L81.091,24.471c-4.194-4.194-4.194-10.995,0-15.189l4.895-4.895l-2.7-2.7l-7.595,7.595
		c-4.194,4.195-4.194,10.995,0,15.189l0,0c2.79,2.79,6.732,3.722,10.295,2.8C84.193,26.808,82.496,25.876,81.091,24.471
		L81.091,24.471z"/>
	<path d="M31.667,39.354c0,0.932,0.756,1.688,1.687,1.688c0.932,0,1.687-0.756,1.687-1.688c0-5.894-4.795-10.688-10.688-10.688
		c-5.893,0-10.688,4.795-10.688,10.688c0,0.932,0.756,1.688,1.687,1.688s1.687-0.756,1.687-1.688c0-4.033,3.281-7.313,7.313-7.313
		C28.386,32.041,31.667,35.321,31.667,39.354L31.667,39.354z"/>
	<path d="M70.074,28.666c-5.893,0-10.688,4.795-10.688,10.688c0,0.932,0.756,1.688,1.687,1.688s1.687-0.756,1.687-1.688
		c0-4.033,3.281-7.313,7.313-7.313c4.033,0,7.314,3.281,7.314,7.313c0,0.932,0.756,1.688,1.687,1.688
		c0.932,0,1.687-0.756,1.687-1.688C80.763,33.461,75.968,28.666,70.074,28.666L70.074,28.666z"/>
	<path d="M60.987,69.236c-2.054-2.379-5.078-3.803-8.269-3.803c-1.959,0-3.84,0.511-5.503,1.488
		c-1.664-0.977-3.545-1.488-5.506-1.488c-3.193,0-6.217,1.425-8.268,3.802c-2.328-1.975-4.183-4.399-5.471-7.144h38.489
		C65.171,64.835,63.315,67.26,60.987,69.236L60.987,69.236z M36.189,71.22c1.411-1.514,3.412-2.413,5.519-2.413
		c1.636,0,3.191,0.514,4.497,1.488c0.598,0.446,1.418,0.446,2.017,0c1.306-0.974,2.861-1.488,4.495-1.488
		c2.106,0,4.108,0.898,5.52,2.413c-3.315,2.019-7.092,3.079-11.024,3.079S39.505,73.24,36.189,71.22L36.189,71.22z M68.41,54.725
		c-0.106,1.353-0.342,2.688-0.702,3.991H26.721c-0.36-1.303-0.596-2.638-0.702-3.991H68.41L68.41,54.725L68.41,54.725z
		 M70.163,51.35H24.265c-0.932,0-1.687,0.756-1.687,1.687c0,2.704,0.437,5.364,1.297,7.907c1.648,4.866,4.729,9.037,8.911,12.062
		c4.216,3.054,9.206,4.668,14.428,4.668c5.223,0,10.212-1.614,14.428-4.667c4.182-3.025,7.264-7.197,8.912-12.062l0,0
		c0.861-2.543,1.297-5.203,1.297-7.907C71.851,52.106,71.095,51.35,70.163,51.35L70.163,51.35z"/>
	<path d="M91.052,48.919c0,24.173-19.665,43.84-43.837,43.84c-24.173,0-43.84-19.666-43.84-43.84s19.666-43.84,43.84-43.84
		c8.784,0,17.201,2.568,24.431,7.436c-0.515,1.376-0.787,2.848-0.787,4.361c0,3.319,1.293,6.441,3.64,8.788
		c2.423,2.423,5.605,3.634,8.788,3.634c0.995,0,1.989-0.119,2.961-0.355C89.394,35.089,91.052,41.966,91.052,48.919L91.052,48.919z
		 M83.286,4.074l6.401,6.401c1.71,1.71,2.652,3.983,2.652,6.401c0,2.418-0.942,4.692-2.652,6.402c-3.53,3.53-9.273,3.53-12.803,0
		c-1.71-1.71-2.652-3.983-2.652-6.402c0-2.418,0.942-4.692,2.652-6.401L83.286,4.074L83.286,4.074z M92.074,25.665
		c2.347-2.347,3.64-5.468,3.64-8.788c0-3.32-1.293-6.441-3.64-8.788L84.48,0.494C84.163,0.178,83.734,0,83.286,0
		c-0.448,0-0.877,0.178-1.193,0.494l-7.595,7.595c-0.454,0.454-0.867,0.937-1.24,1.444c-7.728-5.127-16.693-7.828-26.044-7.828
		C21.18,1.704,0,22.885,0,48.919s21.18,47.215,47.215,47.215c26.033,0,47.212-21.18,47.212-47.215
		c0-7.378-1.737-14.676-5.032-21.222C90.355,27.156,91.258,26.48,92.074,25.665L92.074,25.665z"/>
</g>
<g>
	<path fill="#469FD8" d="M110.555,83.227c0-1.029,0.2-2.011,0.6-2.945c0.4-0.934,0.937-1.736,1.61-2.408
		c0.673-0.672,1.478-1.207,2.414-1.605c0.937-0.399,1.921-0.599,2.953-0.599c1.039,0,1.964,0.161,2.774,0.481
		c0.81,0.322,1.58,0.811,2.312,1.467c0.089,0.082,0.136,0.182,0.139,0.297c0.004,0.117-0.036,0.216-0.12,0.298l-1.306,1.323
		c-0.069,0.082-0.155,0.123-0.256,0.123s-0.193-0.043-0.276-0.129c-0.453-0.407-0.967-0.726-1.541-0.954
		c-0.575-0.229-1.161-0.343-1.761-0.343c-0.891,0-1.704,0.226-2.438,0.678c-0.735,0.451-1.307,1.053-1.714,1.804
		c-0.407,0.752-0.611,1.568-0.611,2.451c0,0.875,0.206,1.687,0.617,2.435c0.41,0.748,0.985,1.345,1.724,1.789
		c0.737,0.444,1.553,0.667,2.444,0.667c1.184,0,2.277-0.403,3.279-1.21c0.084-0.068,0.178-0.102,0.282-0.098
		c0.104,0.003,0.188,0.036,0.251,0.098l1.327,1.359c0.069,0.069,0.104,0.155,0.104,0.258c0,0.122-0.041,0.224-0.123,0.306
		c-1.395,1.343-3.098,2.015-5.107,2.015c-0.69,0-1.363-0.089-2.02-0.268c-0.656-0.178-1.262-0.428-1.814-0.75
		c-0.555-0.322-1.063-0.715-1.528-1.178c-0.465-0.462-0.859-0.971-1.185-1.526c-0.324-0.555-0.577-1.16-0.759-1.814
		C110.646,84.593,110.555,83.919,110.555,83.227z"/>
	<path fill="#469FD8" d="M125.033,88.809c-0.007-0.015-0.011-0.032-0.011-0.054c0-0.069,0.031-0.18,0.092-0.332l0.754-1.317
		c0.074-0.139,0.189-0.218,0.346-0.239c0.156-0.021,0.278,0.011,0.366,0.093l0.102,0.071c0.075,0.048,0.156,0.101,0.245,0.159
		c0.088,0.058,0.2,0.128,0.337,0.21s0.276,0.161,0.42,0.235c0.144,0.076,0.305,0.152,0.482,0.231c0.178,0.078,0.352,0.146,0.522,0.2
		s0.349,0.101,0.533,0.138c0.185,0.038,0.359,0.057,0.523,0.057c0.541,0,0.995-0.157,1.362-0.472c0.366-0.314,0.55-0.697,0.55-1.148
		c0-0.52-0.218-0.976-0.653-1.369c-0.435-0.393-1.108-0.773-2.02-1.143c-0.556-0.227-1.044-0.464-1.465-0.713
		c-0.421-0.25-0.83-0.556-1.228-0.918s-0.703-0.789-0.917-1.281c-0.215-0.492-0.321-1.036-0.321-1.631
		c0-0.472,0.092-0.932,0.276-1.381c0.184-0.448,0.458-0.865,0.822-1.25c0.364-0.386,0.858-0.696,1.482-0.933
		c0.623-0.235,1.334-0.354,2.131-0.354c0.478,0,0.951,0.053,1.419,0.159c0.469,0.106,0.879,0.243,1.233,0.412
		c0.354,0.169,0.635,0.314,0.845,0.438c0.209,0.122,0.386,0.24,0.53,0.353c0.098,0.06,0.16,0.162,0.187,0.309
		c0.026,0.146,0.005,0.269-0.065,0.367l-0.739,1.153c-0.082,0.132-0.186,0.225-0.309,0.278c-0.123,0.053-0.248,0.042-0.374-0.034
		c-1.211-0.771-2.161-1.158-2.85-1.158c-0.562,0-1.012,0.152-1.348,0.456c-0.336,0.305-0.503,0.645-0.503,1.021
		c0,0.485,0.194,0.909,0.585,1.271c0.391,0.362,1.021,0.722,1.893,1.076c0.329,0.131,0.617,0.257,0.865,0.38
		s0.521,0.271,0.817,0.446c0.296,0.174,0.557,0.352,0.782,0.533c0.226,0.181,0.45,0.395,0.672,0.641
		c0.223,0.246,0.406,0.502,0.551,0.77c0.146,0.266,0.262,0.568,0.349,0.907c0.087,0.338,0.131,0.695,0.131,1.071
		c0,1.158-0.428,2.159-1.282,3.002s-1.964,1.264-3.327,1.264c-0.613,0-1.196-0.066-1.748-0.198c-0.552-0.133-1.021-0.303-1.405-0.51
		c-0.385-0.208-0.685-0.391-0.899-0.548s-0.397-0.308-0.547-0.451C125.118,88.969,125.054,88.88,125.033,88.809z"/>
	<path fill="#469FD8" d="M136.415,88.809c-0.007-0.015-0.011-0.032-0.011-0.054c0-0.069,0.031-0.18,0.092-0.332l0.754-1.317
		c0.074-0.139,0.189-0.218,0.346-0.239c0.156-0.021,0.278,0.011,0.366,0.093l0.102,0.071c0.075,0.048,0.156,0.101,0.245,0.159
		c0.088,0.058,0.2,0.128,0.337,0.21s0.276,0.161,0.42,0.235c0.144,0.076,0.305,0.152,0.482,0.231c0.178,0.078,0.352,0.146,0.522,0.2
		s0.349,0.101,0.533,0.138c0.185,0.038,0.359,0.057,0.523,0.057c0.541,0,0.995-0.157,1.362-0.472c0.366-0.314,0.55-0.697,0.55-1.148
		c0-0.52-0.218-0.976-0.653-1.369c-0.435-0.393-1.108-0.773-2.02-1.143c-0.556-0.227-1.044-0.464-1.465-0.713
		c-0.421-0.25-0.83-0.556-1.228-0.918s-0.703-0.789-0.917-1.281c-0.215-0.492-0.321-1.036-0.321-1.631
		c0-0.472,0.092-0.932,0.276-1.381c0.184-0.448,0.458-0.865,0.822-1.25c0.364-0.386,0.858-0.696,1.482-0.933
		c0.623-0.235,1.334-0.354,2.131-0.354c0.478,0,0.951,0.053,1.419,0.159c0.469,0.106,0.879,0.243,1.233,0.412
		c0.354,0.169,0.635,0.314,0.845,0.438c0.209,0.122,0.386,0.24,0.53,0.353c0.098,0.06,0.16,0.162,0.187,0.309
		c0.026,0.146,0.005,0.269-0.065,0.367l-0.739,1.153c-0.082,0.132-0.186,0.225-0.309,0.278c-0.123,0.053-0.248,0.042-0.374-0.034
		c-1.211-0.771-2.161-1.158-2.85-1.158c-0.562,0-1.012,0.152-1.348,0.456c-0.336,0.305-0.503,0.645-0.503,1.021
		c0,0.485,0.194,0.909,0.585,1.271s1.021,0.722,1.893,1.076c0.329,0.131,0.617,0.257,0.865,0.38s0.521,0.271,0.817,0.446
		c0.296,0.174,0.557,0.352,0.782,0.533c0.226,0.181,0.45,0.395,0.672,0.641c0.223,0.246,0.406,0.502,0.551,0.77
		c0.146,0.266,0.262,0.568,0.349,0.907c0.087,0.338,0.131,0.695,0.131,1.071c0,1.158-0.428,2.159-1.282,3.002
		s-1.964,1.264-3.327,1.264c-0.613,0-1.196-0.066-1.748-0.198c-0.552-0.133-1.021-0.303-1.405-0.51
		c-0.385-0.208-0.685-0.391-0.899-0.548s-0.397-0.308-0.547-0.451C136.5,88.969,136.436,88.88,136.415,88.809z"/>
	<path fill="#469FD8" d="M152.074,76.387c-0.015-0.055-0.021-0.105-0.021-0.154c0.007-0.082,0.031-0.153,0.072-0.215
		c0.068-0.096,0.178-0.144,0.328-0.144h1.938c0.082,0,0.161,0.03,0.236,0.093c0.075,0.061,0.123,0.13,0.144,0.205l2.185,8.377h0.082
		l3.332-8.654c0.048-0.15,0.167-0.226,0.359-0.226h0.379c0.191,0,0.311,0.075,0.359,0.226l3.363,8.654h0.082l2.143-8.377
		c0.021-0.075,0.066-0.145,0.139-0.205c0.071-0.062,0.148-0.093,0.23-0.093h1.938c0.157,0,0.271,0.048,0.339,0.144
		c0.048,0.062,0.068,0.133,0.062,0.215c0,0.049-0.007,0.1-0.021,0.154l-3.968,14.109c-0.021,0.082-0.069,0.15-0.145,0.205
		s-0.153,0.082-0.235,0.082h-0.339c-0.191,0-0.311-0.075-0.358-0.226l-3.753-9.516h-0.113l-3.711,9.516
		c-0.076,0.15-0.195,0.226-0.359,0.226h-0.338c-0.082,0-0.161-0.027-0.236-0.082s-0.123-0.123-0.144-0.205L152.074,76.387z"/>
	<path fill="#469FD8" d="M169.771,86.374c0-0.786,0.182-1.514,0.544-2.185c0.362-0.669,0.873-1.208,1.533-1.614
		c0.659-0.407,1.396-0.61,2.21-0.61c1.093,0,2.021,0.371,2.783,1.112c0.763,0.742,1.144,1.674,1.144,2.794
		c0,0.192-0.014,0.384-0.041,0.574c-0.007,0.104-0.052,0.187-0.134,0.252c-0.082,0.064-0.171,0.098-0.266,0.098h-5.373
		c0.033,0.439,0.235,0.835,0.604,1.186c0.369,0.352,0.841,0.526,1.415,0.526c0.602,0,1.145-0.166,1.631-0.497
		c0.238-0.135,0.423-0.128,0.553,0.02l0.852,1.02c0.075,0.077,0.114,0.166,0.118,0.268c0.003,0.103-0.043,0.198-0.139,0.289
		c-0.827,0.785-1.87,1.178-3.128,1.178c-1.244,0-2.272-0.427-3.086-1.281S169.771,87.605,169.771,86.374z M172.355,85.328h3.18
		c-0.035-0.39-0.2-0.725-0.498-1.005c-0.297-0.28-0.645-0.421-1.041-0.421c-0.417,0-0.78,0.138-1.092,0.41
		C172.593,84.587,172.409,84.925,172.355,85.328z"/>
	<path fill="#469FD8" d="M179.134,87.912c0-0.766,0.316-1.397,0.95-1.896s1.498-0.749,2.593-0.749c0.245,0,0.495,0.019,0.751,0.057
		c0.255,0.037,0.451,0.073,0.587,0.107l0.194,0.062c0-0.021,0-0.041,0-0.062c0-0.423-0.078-0.726-0.234-0.907
		c-0.163-0.188-0.434-0.282-0.812-0.282c-0.352,0-0.75,0.034-1.196,0.103s-0.793,0.141-1.041,0.215
		c-0.045,0.015-0.091,0.021-0.137,0.021c-0.182,0-0.29-0.134-0.322-0.4l-0.186-1.098c-0.007-0.047-0.01-0.092-0.01-0.133
		c0-0.191,0.103-0.321,0.308-0.39c0.082-0.051,0.249-0.117,0.502-0.198s0.607-0.168,1.062-0.259
		c0.455-0.092,0.884-0.138,1.287-0.138c0.643,0,1.179,0.08,1.61,0.241c0.43,0.16,0.764,0.406,0.999,0.738
		c0.236,0.331,0.4,0.709,0.492,1.133c0.093,0.424,0.139,0.94,0.139,1.548v4.553c0,0.104-0.045,0.195-0.134,0.277
		s-0.188,0.123-0.3,0.123h-0.823c-0.163,0-0.293-0.099-0.389-0.297l-0.268-0.564c-0.79,0.711-1.657,1.066-2.601,1.066
		c-0.902,0-1.632-0.258-2.188-0.774C179.411,89.493,179.134,88.794,179.134,87.912z M181.636,87.912c0,0.314,0.1,0.574,0.301,0.779
		s0.461,0.308,0.781,0.308c0.307,0,0.605-0.096,0.898-0.287s0.477-0.365,0.552-0.522V87.03c-0.381-0.171-0.772-0.257-1.175-0.257
		c-0.408,0-0.736,0.104-0.985,0.313C181.76,87.295,181.636,87.57,181.636,87.912z"/>
	<path fill="#469FD8" d="M188.71,96.475V82.58c0-0.116,0.039-0.212,0.117-0.287c0.079-0.075,0.173-0.113,0.282-0.113h0.82
		c0.171,0,0.287,0.082,0.349,0.246l0.277,0.697c0.205-0.266,0.555-0.525,1.051-0.779c0.495-0.252,1.047-0.379,1.656-0.379
		c1.152,0,2.124,0.431,2.915,1.291s1.187,1.897,1.187,3.113c0,1.231-0.413,2.275-1.238,3.131c-0.824,0.855-1.813,1.283-2.967,1.283
		c-0.684,0-1.306-0.154-1.865-0.464v6.154c0,0.267-0.168,0.4-0.503,0.4h-1.682c-0.103,0-0.194-0.041-0.276-0.123
		S188.71,96.576,188.71,96.475z M191.191,88.026c0.041,0.034,0.104,0.078,0.19,0.133c0.085,0.055,0.27,0.126,0.554,0.215
		c0.283,0.089,0.579,0.133,0.887,0.133c0.581,0,1.066-0.208,1.456-0.624s0.585-0.921,0.585-1.514c0-0.601-0.186-1.104-0.555-1.514
		s-0.837-0.614-1.404-0.614c-0.472,0-0.854,0.138-1.148,0.414s-0.482,0.562-0.564,0.854V88.026z"/>
	<path fill="#469FD8" d="M198.554,86.349c0-0.778,0.205-1.504,0.616-2.177s0.97-1.208,1.676-1.607c0.705-0.399,1.443-0.6,2.214-0.6
		s1.51,0.2,2.218,0.6s1.269,0.935,1.681,1.607s0.619,1.398,0.619,2.177c0,1.211-0.458,2.253-1.374,3.126
		c-0.916,0.872-1.964,1.309-3.144,1.309s-2.226-0.437-3.138-1.309C199.01,88.602,198.554,87.56,198.554,86.349z M201.056,86.349
		c0,0.6,0.192,1.109,0.577,1.529c0.386,0.419,0.861,0.629,1.427,0.629c0.56,0,1.035-0.21,1.427-0.629
		c0.393-0.42,0.589-0.93,0.589-1.529c0-0.587-0.196-1.084-0.589-1.493c-0.392-0.409-0.867-0.614-1.427-0.614
		c-0.565,0-1.041,0.203-1.427,0.608C201.248,85.256,201.056,85.755,201.056,86.349z"/>
	<path fill="#469FD8" d="M209.034,90.178V82.58c0-0.116,0.039-0.212,0.118-0.287s0.174-0.113,0.284-0.113h0.807
		c0.165,0,0.282,0.082,0.352,0.246l0.3,0.779c0.109-0.115,0.237-0.231,0.385-0.348c0.146-0.116,0.345-0.248,0.594-0.396
		c0.25-0.146,0.549-0.267,0.897-0.358c0.348-0.093,0.71-0.139,1.086-0.139c0.641,0,1.206,0.114,1.696,0.344
		c0.49,0.229,0.878,0.542,1.164,0.938c0.286,0.397,0.501,0.838,0.644,1.323c0.144,0.485,0.215,1.012,0.215,1.579v4.029
		c0,0.104-0.039,0.195-0.117,0.277s-0.169,0.123-0.271,0.123h-1.716c-0.116,0-0.211-0.039-0.286-0.118
		c-0.075-0.078-0.112-0.172-0.112-0.282v-4.152c0-0.547-0.138-0.98-0.414-1.303c-0.276-0.32-0.663-0.481-1.16-0.481
		c-0.491,0-0.91,0.137-1.258,0.41s-0.583,0.578-0.705,0.913v4.613c0,0.151-0.04,0.255-0.119,0.313
		c-0.079,0.058-0.219,0.087-0.419,0.087h-1.562c-0.104,0-0.196-0.041-0.279-0.123C209.075,90.373,209.034,90.281,209.034,90.178z"/>
	<path fill="#469FD8" d="M223.902,86.349c0-0.778,0.205-1.504,0.616-2.177s0.97-1.208,1.676-1.607c0.705-0.399,1.443-0.6,2.214-0.6
		s1.51,0.2,2.218,0.6s1.269,0.935,1.681,1.607s0.619,1.398,0.619,2.177c0,1.211-0.458,2.253-1.374,3.126
		c-0.916,0.872-1.964,1.309-3.144,1.309s-2.226-0.437-3.138-1.309C224.358,88.602,223.902,87.56,223.902,86.349z M226.404,86.349
		c0,0.6,0.192,1.109,0.577,1.529c0.386,0.419,0.861,0.629,1.427,0.629c0.56,0,1.035-0.21,1.427-0.629
		c0.393-0.42,0.589-0.93,0.589-1.529c0-0.587-0.196-1.084-0.589-1.493c-0.392-0.409-0.867-0.614-1.427-0.614
		c-0.565,0-1.041,0.203-1.427,0.608C226.596,85.256,226.404,85.755,226.404,86.349z"/>
	<path fill="#469FD8" d="M233.726,84.044v-1.451c0-0.119,0.038-0.219,0.116-0.296c0.078-0.078,0.178-0.117,0.298-0.117h0.744v-2.266
		c0-1.34,0.365-2.382,1.098-3.127c0.73-0.745,1.674-1.118,2.83-1.118c0.505,0,0.989,0.085,1.45,0.256
		c0.462,0.17,0.806,0.353,1.03,0.546c0.062,0.054,0.1,0.128,0.113,0.221c0.007,0.027,0.01,0.054,0.01,0.081
		c0,0.061-0.014,0.118-0.041,0.172l-0.726,1.327c-0.041,0.081-0.114,0.132-0.218,0.152c-0.104,0.02-0.2,0.003-0.29-0.053
		c-0.477-0.284-0.895-0.426-1.253-0.426c-0.456,0-0.807,0.17-1.052,0.509s-0.368,0.816-0.368,1.433v2.293h2.137
		c0.118,0,0.215,0.039,0.292,0.117c0.076,0.077,0.114,0.177,0.114,0.296v1.451c0,0.112-0.038,0.21-0.114,0.291
		c-0.077,0.081-0.174,0.122-0.292,0.122h-2.137v5.726c0,0.102-0.04,0.192-0.121,0.273s-0.172,0.122-0.272,0.122h-1.797
		c-0.101,0-0.191-0.041-0.272-0.122s-0.121-0.172-0.121-0.273v-5.726h-0.744c-0.12,0-0.22-0.041-0.298-0.122
		S233.726,84.156,233.726,84.044z"/>
	<path fill="#469FD8" d="M245.815,83.227c0-1.029,0.2-2.011,0.6-2.945c0.4-0.934,0.937-1.736,1.61-2.408
		c0.673-0.672,1.478-1.207,2.414-1.605c0.937-0.399,1.921-0.599,2.953-0.599c1.039,0,1.964,0.161,2.774,0.481
		c0.81,0.322,1.58,0.811,2.312,1.467c0.089,0.082,0.136,0.182,0.139,0.297c0.004,0.117-0.036,0.216-0.12,0.298l-1.306,1.323
		c-0.069,0.082-0.155,0.123-0.256,0.123s-0.193-0.043-0.276-0.129c-0.453-0.407-0.967-0.726-1.541-0.954
		c-0.575-0.229-1.161-0.343-1.761-0.343c-0.891,0-1.704,0.226-2.438,0.678c-0.735,0.451-1.307,1.053-1.714,1.804
		c-0.407,0.752-0.611,1.568-0.611,2.451c0,0.875,0.206,1.687,0.617,2.435c0.41,0.748,0.985,1.345,1.724,1.789
		c0.737,0.444,1.553,0.667,2.444,0.667c1.184,0,2.277-0.403,3.279-1.21c0.084-0.068,0.178-0.102,0.282-0.098
		c0.104,0.003,0.188,0.036,0.251,0.098l1.327,1.359c0.069,0.069,0.104,0.155,0.104,0.258c0,0.122-0.041,0.224-0.123,0.306
		c-1.395,1.343-3.098,2.015-5.107,2.015c-0.69,0-1.363-0.089-2.02-0.268c-0.656-0.178-1.262-0.428-1.814-0.75
		c-0.555-0.322-1.063-0.715-1.528-1.178c-0.465-0.462-0.859-0.971-1.185-1.526c-0.324-0.555-0.577-1.16-0.759-1.814
		C245.906,84.593,245.815,83.919,245.815,83.227z"/>
	<path fill="#469FD8" d="M260.355,90.178V76.273c0-0.102,0.041-0.194,0.123-0.276s0.174-0.123,0.276-0.123h1.784
		c0.103,0,0.195,0.041,0.277,0.123s0.123,0.175,0.123,0.276v6.389c0.246-0.185,0.565-0.347,0.958-0.487
		c0.394-0.14,0.815-0.21,1.267-0.21c0.521,0,0.994,0.077,1.419,0.23c0.425,0.154,0.779,0.362,1.064,0.626
		c0.284,0.263,0.523,0.576,0.72,0.938c0.195,0.362,0.337,0.741,0.427,1.138c0.089,0.396,0.134,0.813,0.134,1.251v4.029
		c0,0.104-0.04,0.195-0.119,0.277s-0.17,0.123-0.272,0.123h-1.709c-0.117,0-0.213-0.039-0.289-0.118
		c-0.075-0.078-0.112-0.172-0.112-0.282v-4.05c0-0.574-0.151-1.032-0.451-1.374c-0.302-0.342-0.705-0.513-1.211-0.513
		c-0.471,0-0.868,0.137-1.189,0.41s-0.533,0.633-0.635,1.077v4.449c0,0.268-0.147,0.4-0.441,0.4h-1.743
		c-0.103,0-0.194-0.041-0.276-0.123S260.355,90.281,260.355,90.178z"/>
	<path fill="#469FD8" d="M270.609,86.349c0-0.778,0.205-1.504,0.616-2.177s0.97-1.208,1.676-1.607c0.705-0.399,1.443-0.6,2.214-0.6
		s1.51,0.2,2.218,0.6s1.269,0.935,1.681,1.607s0.619,1.398,0.619,2.177c0,1.211-0.458,2.253-1.374,3.126
		c-0.916,0.872-1.964,1.309-3.144,1.309s-2.226-0.437-3.138-1.309C271.065,88.602,270.609,87.56,270.609,86.349z M273.111,86.349
		c0,0.6,0.192,1.109,0.577,1.529c0.386,0.419,0.861,0.629,1.427,0.629c0.56,0,1.035-0.21,1.427-0.629
		c0.393-0.42,0.589-0.93,0.589-1.529c0-0.587-0.196-1.084-0.589-1.493c-0.392-0.409-0.867-0.614-1.427-0.614
		c-0.565,0-1.041,0.203-1.427,0.608C273.303,85.256,273.111,85.755,273.111,86.349z"/>
	<path fill="#469FD8" d="M281.286,78.801c-0.263-0.263-0.394-0.584-0.394-0.964c0-0.379,0.131-0.701,0.394-0.968s0.579-0.4,0.95-0.4
		c0.401,0,0.741,0.134,1.019,0.4s0.417,0.589,0.417,0.968c0,0.38-0.14,0.701-0.417,0.964c-0.277,0.264-0.617,0.396-1.019,0.396
		C281.866,79.196,281.549,79.064,281.286,78.801z M281.016,90.178V82.58c0-0.116,0.039-0.212,0.116-0.287s0.17-0.113,0.277-0.113
		h1.715c0.107,0,0.2,0.038,0.277,0.113s0.116,0.171,0.116,0.287v7.598c0,0.104-0.04,0.195-0.121,0.277s-0.172,0.123-0.272,0.123
		h-1.715c-0.101,0-0.191-0.041-0.272-0.123S281.016,90.281,281.016,90.178z"/>
	<path fill="#469FD8" d="M285.488,86.369c0-0.806,0.211-1.549,0.635-2.228c0.425-0.68,0.979-1.212,1.667-1.598
		c0.687-0.386,1.42-0.579,2.199-0.579c1.244,0,2.279,0.499,3.106,1.496c0.068,0.096,0.093,0.198,0.072,0.308
		s-0.082,0.201-0.185,0.276l-0.964,0.922c-0.15,0.13-0.325,0.109-0.523-0.061c-0.396-0.443-0.878-0.665-1.445-0.665
		s-1.053,0.208-1.456,0.624s-0.604,0.917-0.604,1.504c0,0.6,0.197,1.106,0.594,1.519c0.396,0.413,0.879,0.619,1.446,0.619
		c0.26,0,0.499-0.041,0.718-0.123c0.219-0.081,0.385-0.167,0.497-0.256c0.113-0.088,0.244-0.204,0.396-0.348
		c0.033-0.033,0.058-0.058,0.071-0.071c0.171-0.171,0.345-0.19,0.522-0.062l0.902,0.779c0.15,0.123,0.227,0.242,0.227,0.358
		c0,0.075-0.028,0.151-0.082,0.227c-0.753,1.181-1.856,1.771-3.312,1.771c-1.203,0-2.251-0.426-3.143-1.278
		C285.933,88.653,285.488,87.607,285.488,86.369z"/>
	<path fill="#469FD8" d="M294.449,86.374c0-0.786,0.182-1.514,0.544-2.185c0.362-0.669,0.873-1.208,1.533-1.614
		c0.659-0.407,1.396-0.61,2.21-0.61c1.093,0,2.021,0.371,2.783,1.112c0.763,0.742,1.144,1.674,1.144,2.794
		c0,0.192-0.014,0.384-0.041,0.574c-0.007,0.104-0.052,0.187-0.134,0.252c-0.082,0.064-0.171,0.098-0.266,0.098h-5.373
		c0.033,0.439,0.235,0.835,0.604,1.186c0.369,0.352,0.841,0.526,1.415,0.526c0.602,0,1.145-0.166,1.631-0.497
		c0.238-0.135,0.423-0.128,0.553,0.02l0.852,1.02c0.075,0.077,0.114,0.166,0.118,0.268c0.003,0.103-0.043,0.198-0.139,0.289
		c-0.827,0.785-1.87,1.178-3.128,1.178c-1.244,0-2.272-0.427-3.086-1.281S294.449,87.605,294.449,86.374z M297.033,85.328h3.18
		c-0.035-0.39-0.2-0.725-0.498-1.005c-0.297-0.28-0.645-0.421-1.041-0.421c-0.417,0-0.78,0.138-1.092,0.41
		C297.271,84.587,297.087,84.925,297.033,85.328z"/>
</g>
</svg>
